<svg version="1.2" xmlns="http://www.w3.org/2000/svg" viewBox="0 0 1000 1000" width="1000" height="1000">
	<title>lab_logo-ai</title>
	<style>
		.s0 { fill: #07294d } 
		.s1 { fill: #fec500 } 
		.s2 { fill: #000000 } 
		.s3 { fill: #de7c00 } 
		.s4 { fill: #006297 } 
		.s5 { fill: #282828 } 
	</style>
	<g id="Layer 2">
		<g id="&lt;Group&gt;">
			<path id="&lt;Path&gt;" class="s0" d="m240.7 672.9l55.6-535.4 282.9 4.1 173.8 64.2 65.4 260.9-53.4 210.3-116.1 144.1-176.6 89.7-270.5 29 264.9-134.7 130.3-98 25-58.5-106.8-242.9-67.3 123.7 10.2-157-129.3-87.3-4.8 285.8z"/>
			<path id="&lt;Path&gt;" class="s0" d="m309.2 202.1l-127.6 51.6 84.5 244.4z"/>
			<path id="&lt;Path&gt;" class="s1" d="m274.3 505.3l102.5 128.5c0 0 50.5-26.9 58.3-33.7 7.8-6.7 133.5-115.7 133.5-115.7l-53.4-78.7-67.3 123.7 7.6-115.9z"/>
			<path id="&lt;Path&gt;" class="s2" d="m190.2 385.2l51.7 119.2 32.2 0.5 181.4-91.4 2.6-41.1-94.1-63.5-141.7 62.5-3.3-9.7z"/>
			<path id="&lt;Path&gt;" class="s3" d="m435.1 600.1l13.9 5.7 142.5-45.3-22.1-63.8-18.1 2.8z"/>
			<path id="&lt;Path&gt;" class="s2" d="m449 605.8l17.7 199.3 130.3-98 25-58.5-30.5-88.1z"/>
			<path id="&lt;Path&gt;" class="s0" d="m201.8 939.8l264.9-134.7 130.3-98-107.1 135.1z"/>
			<path id="&lt;Path&gt;" class="s0" d="m648.9 821.1l169.5-354.4-53.4 210.3z"/>
			<path id="&lt;Path&gt;" class="s0" d="m622 648.6l61.8-159.6-30.9-52.4-94 29.8z"/>
			<path id="&lt;Path&gt;" class="s4" d="m709.2 287.1q-56.4-48-112.8-96 40.5 120.7 81 241.3l5.1 26.3-31.2 94.9-13.7 44.5-103.1 183-332.7 158.7 328.1-94.6 135.6-130.8c1.5-14.4 13.1-128.3 24.1-235.5 9-87.7 17.5-171 19.6-191.8z"/>
			<path id="&lt;Path&gt;" class="s4" d="m708.1 285.5q-56.5-48-112.9-96 40.5 120.7 81.1 241.3l5.1 26.3-31.2 95-13.8 44.4-113 166-321.6 177.3 326.9-96.2 135.7-130.7c1.4-14.5 13.1-128.3 24.1-235.5 8.9-87.8 17.5-171.1 19.6-191.9z"/>
			<path id="&lt;Path&gt;" class="s1" d="m328.2 324.7l35.8-15.8-35.2-23.8z"/>
			<path id="&lt;Path&gt;" class="s2" d="m649.7 479.8l-73.6 20.7c-17.4 5-35.6-5.2-40.5-22.6l-28-99.4c-6.3-22.3 6.7-45.6 29-51.9l88.5-24.9c14.7-4.2 30.1 4.4 34.2 19.1l26.6 94.3c7.9 27.9-8.4 56.8-36.2 64.7z"/>
			<path id="&lt;Path&gt;" class="s2" d="m660.9 326.6c0 0-12.3-16.7-20.9-28.6-14.6-20.3-88.1-202.1-88.1-202.1 0 0-36 2.8-52.7 0.4l-14.6 43.9c0 0 54.3 150.5 44 188.7z"/>
			<path id="&lt;Path&gt;" class="s1" d="m535.5 96.8c5.8 18.3 73.2 181 84.8 206.3l-15.3 4.3c-19.1-66.1-49.1-137.7-84.4-210.2z"/>
			<path id="&lt;Path&gt;" class="s4" d="m240.7 672.9l60.9-74.5-27.5-93.5-15.9-0.2z"/>
			<path id="&lt;Path&gt;" class="s4" d="m222.3 371.4l-31.1-108.8 97.6-52.2-107.2 43.3z"/>
			<path id="&lt;Path&gt;" class="s4" d="m288.8 210.4l16.1-66.1 179.7-4.1-188.3-2.7z"/>
			<path id="&lt;Path&gt;" class="s5" d="m232.2 367l56.8 130.4 27.9-14-54.6-129.6z"/>
			<path id="&lt;Path&gt;" class="s5" d="m341.5 470.3l-54.9-128.7 12.3-5.4 55.4 129z"/>
			<path id="&lt;Path&gt;" class="s5" d="m543.6 352.8c0 0 23 101.6 31.6 104.8 8.6 3.2 86.7-16.1 86.7-16.1 0 0-69.4 6.5-75.6 0.6-6.2-5.9-42.7-89.3-42.7-89.3z"/>
			<path id="&lt;Path&gt;" class="s4" d="m709.1 287.9l30.8 148.8-74.4 277.7"/>
			<path id="&lt;Path&gt;" class="s4" d="m328.2 174l10.7 75.1 79.2 45.1"/>
			<path id="&lt;Path&gt;" class="s4" d="m286.6 255.5l-54.4 24.2 17.1 52.2"/>
		</g>
	</g>
</svg>