<svg version="1.2" xmlns="http://www.w3.org/2000/svg" viewBox="0 0 1000 250" width="1000" height="250">
	<title>text-svg</title>
	<style>
		.s0 { fill: #07294d } 
	</style>
	<g>
		<path fill-rule="evenodd" class="s0" d="m97.8 246.6v-242.2h109c53.2 0 91.7 48.3 91.7 118.6 0 70.3-38.5 123.6-91.7 123.6zm109-52c30.1 0 52-28.9 52-68.9 0-40-21.9-69.3-52-69.3h-69.5v138.2z"/>
		<path class="s0" d="m389.4 4.4v242.2h-39.7v-242.2z"/>
		<path class="s0" d="m433.7 4.4h48.4l77.4 172.9 77.2-172.9h45.6l-105.2 228.9c-4.9 10.3-10.7 16.6-19.1 16.6-8.4 0-14.5-6.3-19.1-16.6 0 0-105.2-228.9-105.2-228.9z"/>
		<path class="s0" d="m854.9 246.6l-25.9-57.3h-78.2l18.1-40.3h41.7l-33.9-74.6-77.6 172.2h-45.1l105.2-228.9c4.5-10 10.4-16.6 19.1-16.6 8.6 0 14.5 6.6 19.1 16.6l105.1 228.9h-47.6z"/>
	</g>
</svg>